<svg width="668" height="232" viewBox="0 0 668 232" fill="none" xmlns="http://www.w3.org/2000/svg">
<path d="M128 6.10352e-05L55.855 7.62806L0 82.6071L128 231.662L256 82.6071L200.146 7.62806L128 6.10352e-05Z" fill="#FDB300"/>
<path d="M0 82.6075L128 231.661L51.846 82.6075H0Z" fill="#EB6C00"/>
<path d="M204.154 82.6075L128.001 231.661L256 82.6075H204.154Z" fill="#EB6C00"/>
<path d="M51.8467 82.6075L128.001 231.661L204.155 82.6075H51.8467Z" fill="#FDAD00"/>
<path d="M55.8547 7.62806L51.8457 82.6071L128 6.10352e-05L55.8547 7.62806Z" fill="#FDD231"/>
<path d="M204.154 82.6075L200.146 7.62749L128.001 0.000488281L204.154 82.6075Z" fill="#FDD231"/>
<path d="M204.155 82.6074H256L200.146 7.62744L204.155 82.6074Z" fill="#FDAD00"/>
<path d="M0 82.6074H51.846L55.855 7.62744L0 82.6074Z" fill="#FDAD00"/>
<path d="M128 6.10352e-05L51.8457 82.6071H204.154L128 6.10352e-05Z" fill="#FFF7DD"/>
<path d="M506.075 228.481C496.238 228.481 488.51 220.753 488.51 210.916V28.2809C488.51 18.4435 496.238 10.7155 506.075 10.7155H614.249C618.113 10.7155 621.622 12.1249 624.086 14.9342L659.907 50.7555C662.717 53.5648 664.126 57.0741 664.126 60.5929V210.916C664.126 220.753 656.398 228.481 646.561 228.481H506.075Z" fill="white"/>
<path d="M614.248 14.2343C617.057 14.2343 619.867 15.289 621.621 17.3984L657.443 53.2197C659.552 55.3291 660.607 57.7836 660.607 60.593V210.916C660.607 218.644 654.288 224.962 646.56 224.962H506.075C498.347 224.962 492.028 218.644 492.028 210.916V28.281C492.028 20.5529 498.347 14.2343 506.075 14.2343H614.248ZM614.248 7.20624H506.075C494.483 7.20624 485 16.6889 485 28.281V210.916C485 222.508 494.483 231.99 506.075 231.99H646.56C658.152 231.99 667.635 222.508 667.635 210.916V60.593C667.635 56.029 665.88 51.4651 662.371 48.301L626.55 12.4797C623.031 8.96087 618.812 7.20624 614.248 7.20624Z" fill="#EB6C00"/>
<path d="M619.426 108.534C618.199 107.22 616.176 106.165 613.539 105.437C610.902 104.717 607.652 104.315 603.97 104.315C601.861 104.315 599.626 104.449 597.277 104.689C594.928 104.928 592.474 105.283 589.923 105.724C588.428 104.315 586.941 102.781 585.465 101.112C583.998 99.444 582.55 97.6414 581.141 95.7142C580.172 94.3048 579.213 92.9049 578.293 91.4955C577.372 90.086 576.49 88.6861 575.704 87.2767C577.018 83.1538 578.159 79.1076 578.974 75.3586C579.789 71.6001 580.268 68.1388 580.268 65.1569C580.268 62.9612 579.913 60.0176 578.734 57.6302C577.545 55.2331 575.531 53.3922 572.195 53.3922C571.313 53.3922 570.392 53.6511 569.577 54.1113C568.762 54.5716 568.062 55.2331 567.621 56.0194C566.308 58.3876 565.915 62.3379 566.48 67.0841C567.056 71.8302 568.59 77.353 571.131 82.8853C570.248 85.522 569.28 88.1971 568.225 90.9873C567.171 93.7774 566.03 96.673 564.802 99.7508C563.748 102.301 562.607 104.842 561.399 107.345C560.19 109.847 558.915 112.311 557.602 114.67C550.401 117.566 544.476 120.595 540.238 123.558C536 126.521 533.459 129.417 533.018 132.053C532.845 132.935 532.883 133.76 533.152 134.556C533.411 135.342 533.9 136.09 534.6 136.79C535.041 137.145 535.693 137.624 536.575 138.017C537.457 138.41 538.55 138.717 539.873 138.717C543.996 138.717 548.387 135.687 552.606 131.094C556.825 126.511 560.862 120.365 564.285 114.123C566.212 113.424 568.187 112.762 570.21 112.148C572.233 111.535 574.295 110.969 576.404 110.442C578.686 109.828 580.882 109.301 583.039 108.84C585.187 108.38 587.296 107.987 589.406 107.632C594.411 112.196 599.109 114.699 603.126 116.06C607.144 117.422 610.48 117.642 612.762 117.642C615.485 117.642 617.211 117.22 618.362 116.549C619.512 115.878 620.078 114.958 620.49 113.96C620.855 112.762 620.855 111.669 620.634 110.739C620.404 109.828 619.953 109.061 619.426 108.534ZM569.031 56.9015C569.385 56.2878 569.817 55.8084 570.325 55.4728C570.833 55.1468 571.399 54.9647 572.013 54.9647C573.24 54.9647 574.208 55.492 574.86 56.5275C575.522 57.5631 575.867 59.0972 575.867 61.1107C575.867 63.2201 575.512 66.0294 574.86 69.3181C574.199 72.6164 573.24 76.3846 572.013 80.4212C569.558 74.8025 568.321 69.7592 567.957 65.6938C567.583 61.6476 568.062 58.5698 569.031 56.9015ZM534.609 132.245C535.05 130.049 537.332 127.547 541.062 124.939C544.792 122.321 549.979 119.608 556.211 116.971C552.702 122.945 549.183 127.767 546.029 131.104C542.865 134.441 540.055 136.282 537.946 136.282C537.505 136.282 537.112 136.195 536.738 136.042C536.364 135.889 536.019 135.668 535.664 135.409C535.223 134.968 534.916 134.441 534.744 133.894C534.561 133.338 534.523 132.772 534.609 132.245ZM587.823 106.079C585.983 106.434 584.046 106.827 582.071 107.258C580.095 107.699 578.082 108.179 576.059 108.706C574.304 109.147 572.55 109.627 570.814 110.154C569.079 110.681 567.372 111.247 565.704 111.861C566.672 110.02 567.593 108.217 568.427 106.463C569.261 104.708 570.009 102.992 570.622 101.323C571.409 99.3961 572.204 97.4209 572.971 95.417C573.739 93.4227 574.486 91.3996 575.186 89.3765C575.886 90.6038 576.634 91.831 577.43 93.0679C578.216 94.2952 579.05 95.5225 579.932 96.7593C581.16 98.4277 582.435 100.058 583.758 101.611C585.053 103.174 586.414 104.67 587.823 106.079ZM591.333 107.134C595.552 106.347 599.502 105.993 602.81 105.926C606.127 105.858 608.802 106.079 610.471 106.434C612.053 106.789 613.28 107.488 614.047 108.457C614.814 109.425 615.121 110.653 614.862 112.052C614.603 113.548 613.587 114.641 612.158 115.255C610.73 115.868 608.889 116.003 606.952 115.562C603.788 114.775 600.94 113.539 598.351 112.072C595.762 110.605 593.442 108.888 591.333 107.134Z" fill="#EB6C00"/>
<path d="M540.526 168.47C540.526 168.422 540.526 168.374 540.536 168.336C540.545 168.297 540.555 168.259 540.574 168.23C540.593 168.201 540.622 168.173 540.67 168.163C540.708 168.144 540.756 168.134 540.823 168.134C541.303 168.105 541.83 168.086 542.415 168.067C542.99 168.048 543.614 168.029 544.266 168.019C544.918 168.01 545.608 168 546.317 167.99C547.027 167.981 547.746 167.981 548.484 167.981C550.546 167.981 552.32 168.259 553.815 168.777C555.311 169.294 556.538 170.042 557.497 170.963C558.466 171.893 559.166 172.995 559.635 174.232C560.096 175.469 560.326 176.84 560.326 178.288C560.326 180.177 559.981 181.797 559.367 183.168C558.753 184.53 557.862 185.652 556.759 186.534C555.656 187.416 554.343 188.058 552.885 188.48C551.428 188.902 549.827 189.103 548.139 189.103C547.852 189.103 547.621 189.103 547.41 189.094C547.2 189.094 547.027 189.084 546.854 189.075C546.682 189.065 546.528 189.065 546.365 189.055C546.202 189.046 546.03 189.046 545.828 189.046V191.913V194.78V197.646V200.513C545.828 200.58 545.819 200.628 545.809 200.667C545.8 200.705 545.78 200.743 545.752 200.772C545.723 200.801 545.685 200.82 545.646 200.83C545.608 200.839 545.55 200.849 545.493 200.849H544.333H543.173H542.012H540.852C540.795 200.849 540.737 200.839 540.699 200.83C540.66 200.82 540.622 200.801 540.593 200.772C540.565 200.743 540.545 200.705 540.536 200.667C540.526 200.619 540.517 200.571 540.517 200.513V192.507V184.501V176.495C540.526 176.476 540.526 168.47 540.526 168.47ZM545.828 184.281C546.001 184.29 546.164 184.3 546.327 184.309C546.49 184.319 546.663 184.319 546.845 184.319C547.027 184.319 547.228 184.319 547.458 184.329C547.689 184.329 547.938 184.329 548.235 184.329C549.108 184.329 549.961 184.252 550.757 184.06C551.553 183.868 552.281 183.571 552.904 183.12C553.528 182.67 554.045 182.075 554.4 181.299C554.755 180.522 554.966 179.563 554.966 178.384C554.966 177.435 554.822 176.61 554.544 175.901C554.266 175.191 553.854 174.597 553.317 174.117C552.78 173.647 552.118 173.283 551.342 173.043C550.565 172.804 549.673 172.689 548.676 172.689C548.379 172.689 548.091 172.689 547.813 172.698C547.535 172.708 547.267 172.708 547.017 172.717C546.768 172.727 546.538 172.736 546.337 172.746C546.135 172.756 545.963 172.775 545.828 172.784V175.661V178.537V181.414V184.281Z" fill="#EB6C00"/>
<path d="M565.628 168.517C565.628 168.45 565.628 168.402 565.637 168.364C565.647 168.316 565.666 168.287 565.685 168.248C565.714 168.22 565.743 168.191 565.791 168.172C565.839 168.153 565.896 168.133 565.973 168.124C566.26 168.114 566.673 168.095 567.181 168.076C567.699 168.057 568.312 168.047 568.993 168.028C569.674 168.009 570.431 167.999 571.227 167.99C572.013 167.98 572.847 167.97 573.682 167.97C576.175 167.97 578.351 168.373 580.221 169.121C582.09 169.869 583.644 170.971 584.881 172.362C586.127 173.752 587.057 175.449 587.68 177.376C588.304 179.304 588.61 181.47 588.61 183.839C588.61 187.118 588.073 189.831 587.163 192.046C586.252 194.261 584.967 195.987 583.481 197.31C581.995 198.633 580.297 199.535 578.552 200.11C576.817 200.685 575.034 200.934 573.375 200.934C572.752 200.934 572.052 200.934 571.342 200.925C570.633 200.925 569.894 200.915 569.204 200.906C568.504 200.896 567.852 200.886 567.286 200.877C566.721 200.867 566.241 200.848 565.915 200.839C565.867 200.839 565.819 200.829 565.781 200.81C565.743 200.791 565.714 200.771 565.685 200.733C565.656 200.695 565.647 200.656 565.628 200.608C565.618 200.56 565.608 200.503 565.608 200.445V192.458V184.472V176.485L565.628 168.517ZM570.987 196.121C571.198 196.131 571.4 196.15 571.601 196.16C571.802 196.169 572.004 196.179 572.205 196.188C572.406 196.198 572.608 196.207 572.828 196.207C573.039 196.207 573.26 196.217 573.499 196.217C574.88 196.217 576.165 195.977 577.316 195.479C578.476 194.98 579.502 194.242 580.355 193.235C581.208 192.228 581.899 190.963 582.368 189.419C582.838 187.885 583.107 186.073 583.116 183.983C583.126 181.95 582.877 180.214 582.407 178.776C581.937 177.338 581.247 176.178 580.393 175.277C579.54 174.375 578.524 173.723 577.383 173.301C576.251 172.88 574.995 172.688 573.682 172.688C573.423 172.688 573.183 172.688 572.943 172.697C572.704 172.707 572.483 172.707 572.263 172.717C572.042 172.726 571.831 172.736 571.62 172.745C571.409 172.755 571.198 172.774 570.987 172.784V178.613V184.443V190.272C570.987 190.282 570.987 196.121 570.987 196.121Z" fill="#EB6C00"/>
<path d="M599.867 200.445C599.867 200.522 599.857 200.58 599.848 200.628C599.838 200.676 599.819 200.723 599.79 200.752C599.761 200.781 599.723 200.8 599.685 200.819C599.646 200.829 599.589 200.839 599.531 200.839H598.361H597.192H596.022H594.852C594.795 200.839 594.737 200.829 594.699 200.819C594.66 200.81 594.622 200.781 594.593 200.752C594.565 200.723 594.545 200.685 594.536 200.628C594.526 200.58 594.517 200.513 594.517 200.445V192.439V184.433V176.427V168.421C594.517 168.363 594.526 168.306 594.536 168.268C594.545 168.229 594.565 168.191 594.593 168.162C594.622 168.133 594.66 168.114 594.699 168.105C594.737 168.095 594.795 168.085 594.852 168.085H598.937H603.021H607.106H611.19C611.267 168.085 611.325 168.095 611.373 168.105C611.42 168.114 611.449 168.133 611.478 168.162C611.507 168.191 611.526 168.229 611.545 168.268C611.564 168.306 611.574 168.363 611.583 168.421L611.708 169.457L611.833 170.492L611.957 171.528L612.082 172.563C612.092 172.64 612.092 172.697 612.082 172.745C612.072 172.793 612.044 172.841 612.015 172.87C611.986 172.899 611.938 172.918 611.881 172.937C611.823 172.947 611.766 172.956 611.689 172.956H608.726H605.773H602.81H599.848V175.286V177.616V179.946V182.276H602.504H605.159H607.815H610.471C610.538 182.276 610.586 182.276 610.625 182.285C610.673 182.295 610.701 182.314 610.73 182.333C610.759 182.362 610.778 182.391 610.788 182.439C610.797 182.487 610.807 182.544 610.807 182.621V183.657V184.692V185.728V186.763C610.807 186.84 610.797 186.897 610.788 186.945C610.778 186.993 610.759 187.022 610.73 187.051C610.701 187.08 610.663 187.089 610.625 187.099C610.577 187.108 610.529 187.108 610.471 187.108H607.825H605.169H602.513H599.857V190.445V193.782V197.118L599.867 200.445Z" fill="#EB6C00"/>
<mask id="mask0" mask-type="alpha" maskUnits="userSpaceOnUse" x="170" y="38" width="284" height="160">
<path d="M174.461 112.691C170.425 116.855 170.528 123.502 174.691 127.539L242.541 193.317C246.704 197.353 253.352 197.25 257.388 193.086C261.425 188.923 261.322 182.275 257.158 178.239L196.847 119.77L255.317 59.4592C259.353 55.2956 259.25 48.6482 255.086 44.6117C250.923 40.5753 244.275 40.6784 240.239 44.8419L174.461 112.691ZM449.538 123.278C453.575 119.114 453.472 112.467 449.308 108.43L381.459 42.6525C377.295 38.616 370.648 38.7191 366.611 42.8827C362.575 47.0463 362.678 53.6937 366.841 57.7301L427.152 116.199L368.683 176.51C364.647 180.673 364.75 187.321 368.913 191.357C373.077 195.394 379.724 195.291 383.761 191.127L449.538 123.278ZM182.163 130.499L442.162 126.468L441.837 105.47L181.837 109.501L182.163 130.499Z" fill="#EB6C00"/>
</mask>
<g mask="url(#mask0)">
<rect x="272" y="11" width="194" height="217" fill="#EB6C00"/>
</g>
</svg>
