<svg width="602" height="232" viewBox="0 0 602 232" fill="none" xmlns="http://www.w3.org/2000/svg">
<path d="M128 6.10352e-05L55.855 7.62806L0 82.6071L128 231.662L256 82.6071L200.146 7.62806L128 6.10352e-05Z" fill="#FDB300"/>
<path d="M0 82.6075L128 231.661L51.846 82.6075H0Z" fill="#EB6C00"/>
<path d="M204.154 82.6075L128.001 231.661L256 82.6075H204.154Z" fill="#EB6C00"/>
<path d="M51.8467 82.6075L128.001 231.661L204.155 82.6075H51.8467Z" fill="#FDAD00"/>
<path d="M55.8547 7.62806L51.8457 82.6071L128 6.10352e-05L55.8547 7.62806Z" fill="#FDD231"/>
<path d="M204.154 82.6075L200.146 7.62749L128.001 0.000488281L204.154 82.6075Z" fill="#FDD231"/>
<path d="M204.155 82.6074H256L200.146 7.62744L204.155 82.6074Z" fill="#FDAD00"/>
<path d="M0 82.6074H51.846L55.855 7.62744L0 82.6074Z" fill="#FDAD00"/>
<path d="M128 6.10352e-05L51.8457 82.6071H204.154L128 6.10352e-05Z" fill="#FFF7DD"/>
<path d="M440.075 228.481C430.238 228.481 422.51 220.753 422.51 210.916V28.2809C422.51 18.4435 430.238 10.7155 440.075 10.7155H548.249C552.113 10.7155 555.622 12.1249 558.086 14.9342L593.907 50.7555C596.717 53.5648 598.126 57.0741 598.126 60.5929V210.916C598.126 220.753 590.398 228.481 580.561 228.481H440.075Z" fill="white"/>
<path d="M548.248 14.2343C551.057 14.2343 553.867 15.289 555.621 17.3984L591.443 53.2197C593.552 55.3291 594.607 57.7836 594.607 60.593V210.916C594.607 218.644 588.288 224.962 580.56 224.962H440.075C432.347 224.962 426.028 218.644 426.028 210.916V28.281C426.028 20.5529 432.347 14.2343 440.075 14.2343H548.248ZM548.248 7.20624H440.075C428.483 7.20624 419 16.6889 419 28.281V210.916C419 222.508 428.483 231.99 440.075 231.99H580.56C592.152 231.99 601.635 222.508 601.635 210.916V60.593C601.635 56.029 599.88 51.4651 596.371 48.301L560.55 12.4797C557.031 8.96087 552.812 7.20624 548.248 7.20624Z" fill="#EB6C00"/>
<path d="M553.426 108.534C552.199 107.22 550.176 106.165 547.539 105.437C544.902 104.717 541.652 104.315 537.97 104.315C535.861 104.315 533.626 104.449 531.277 104.689C528.928 104.928 526.474 105.283 523.923 105.724C522.428 104.315 520.941 102.781 519.465 101.112C517.998 99.444 516.55 97.6414 515.141 95.7142C514.172 94.3048 513.213 92.9049 512.293 91.4955C511.372 90.086 510.49 88.6861 509.704 87.2767C511.018 83.1538 512.159 79.1076 512.974 75.3586C513.789 71.6001 514.268 68.1388 514.268 65.1569C514.268 62.9612 513.913 60.0176 512.734 57.6302C511.545 55.2331 509.531 53.3922 506.195 53.3922C505.313 53.3922 504.392 53.6511 503.577 54.1113C502.762 54.5716 502.062 55.2331 501.621 56.0194C500.308 58.3876 499.915 62.3379 500.48 67.0841C501.056 71.8302 502.59 77.353 505.131 82.8853C504.248 85.522 503.28 88.1971 502.225 90.9873C501.171 93.7774 500.03 96.673 498.802 99.7508C497.748 102.301 496.607 104.842 495.399 107.345C494.19 109.847 492.915 112.311 491.602 114.67C484.401 117.566 478.476 120.595 474.238 123.558C470 126.521 467.459 129.417 467.018 132.053C466.845 132.935 466.883 133.76 467.152 134.556C467.411 135.342 467.9 136.09 468.6 136.79C469.041 137.145 469.693 137.624 470.575 138.017C471.457 138.41 472.55 138.717 473.873 138.717C477.996 138.717 482.387 135.687 486.606 131.094C490.825 126.511 494.862 120.365 498.285 114.123C500.212 113.424 502.187 112.762 504.21 112.148C506.233 111.535 508.295 110.969 510.404 110.442C512.686 109.828 514.882 109.301 517.039 108.84C519.187 108.38 521.296 107.987 523.406 107.632C528.411 112.196 533.109 114.699 537.126 116.06C541.144 117.422 544.48 117.642 546.762 117.642C549.485 117.642 551.211 117.22 552.362 116.549C553.512 115.878 554.078 114.958 554.49 113.96C554.855 112.762 554.855 111.669 554.634 110.739C554.404 109.828 553.953 109.061 553.426 108.534ZM503.031 56.9015C503.385 56.2878 503.817 55.8084 504.325 55.4728C504.833 55.1468 505.399 54.9647 506.013 54.9647C507.24 54.9647 508.208 55.492 508.86 56.5275C509.522 57.5631 509.867 59.0972 509.867 61.1107C509.867 63.2201 509.512 66.0294 508.86 69.3181C508.199 72.6164 507.24 76.3846 506.013 80.4212C503.558 74.8025 502.321 69.7592 501.957 65.6938C501.583 61.6476 502.062 58.5698 503.031 56.9015ZM468.609 132.245C469.05 130.049 471.332 127.547 475.062 124.939C478.792 122.321 483.979 119.608 490.211 116.971C486.702 122.945 483.183 127.767 480.029 131.104C476.865 134.441 474.055 136.282 471.946 136.282C471.505 136.282 471.112 136.195 470.738 136.042C470.364 135.889 470.019 135.668 469.664 135.409C469.223 134.968 468.916 134.441 468.744 133.894C468.561 133.338 468.523 132.772 468.609 132.245ZM521.823 106.079C519.983 106.434 518.046 106.827 516.071 107.258C514.095 107.699 512.082 108.179 510.059 108.706C508.304 109.147 506.55 109.627 504.814 110.154C503.079 110.681 501.372 111.247 499.704 111.861C500.672 110.02 501.593 108.217 502.427 106.463C503.261 104.708 504.009 102.992 504.622 101.323C505.409 99.3961 506.204 97.4209 506.971 95.417C507.739 93.4227 508.486 91.3996 509.186 89.3765C509.886 90.6038 510.634 91.831 511.43 93.0679C512.216 94.2952 513.05 95.5225 513.932 96.7593C515.16 98.4277 516.435 100.058 517.758 101.611C519.053 103.174 520.414 104.67 521.823 106.079ZM525.333 107.134C529.552 106.347 533.502 105.993 536.81 105.926C540.127 105.858 542.802 106.079 544.471 106.434C546.053 106.789 547.28 107.488 548.047 108.457C548.814 109.425 549.121 110.653 548.862 112.052C548.603 113.548 547.587 114.641 546.158 115.255C544.73 115.868 542.889 116.003 540.952 115.562C537.788 114.775 534.94 113.539 532.351 112.072C529.762 110.605 527.442 108.888 525.333 107.134Z" fill="#EB6C00"/>
<path d="M474.526 168.47C474.526 168.422 474.526 168.374 474.536 168.336C474.545 168.297 474.555 168.259 474.574 168.23C474.593 168.201 474.622 168.173 474.67 168.163C474.708 168.144 474.756 168.134 474.823 168.134C475.303 168.105 475.83 168.086 476.415 168.067C476.99 168.048 477.614 168.029 478.266 168.019C478.918 168.01 479.608 168 480.317 167.99C481.027 167.981 481.746 167.981 482.484 167.981C484.546 167.981 486.32 168.259 487.815 168.777C489.311 169.294 490.538 170.042 491.497 170.963C492.466 171.893 493.166 172.995 493.635 174.232C494.096 175.469 494.326 176.84 494.326 178.288C494.326 180.177 493.981 181.797 493.367 183.168C492.753 184.53 491.862 185.652 490.759 186.534C489.656 187.416 488.343 188.058 486.885 188.48C485.428 188.902 483.827 189.103 482.139 189.103C481.852 189.103 481.621 189.103 481.41 189.094C481.2 189.094 481.027 189.084 480.854 189.075C480.682 189.065 480.528 189.065 480.365 189.055C480.202 189.046 480.03 189.046 479.828 189.046V191.913V194.78V197.646V200.513C479.828 200.58 479.819 200.628 479.809 200.667C479.8 200.705 479.78 200.743 479.752 200.772C479.723 200.801 479.685 200.82 479.646 200.83C479.608 200.839 479.55 200.849 479.493 200.849H478.333H477.173H476.012H474.852C474.795 200.849 474.737 200.839 474.699 200.83C474.66 200.82 474.622 200.801 474.593 200.772C474.565 200.743 474.545 200.705 474.536 200.667C474.526 200.619 474.517 200.571 474.517 200.513V192.507V184.501V176.495C474.526 176.476 474.526 168.47 474.526 168.47ZM479.828 184.281C480.001 184.29 480.164 184.3 480.327 184.309C480.49 184.319 480.663 184.319 480.845 184.319C481.027 184.319 481.228 184.319 481.458 184.329C481.689 184.329 481.938 184.329 482.235 184.329C483.108 184.329 483.961 184.252 484.757 184.06C485.553 183.868 486.281 183.571 486.904 183.12C487.528 182.67 488.045 182.075 488.4 181.299C488.755 180.522 488.966 179.563 488.966 178.384C488.966 177.435 488.822 176.61 488.544 175.901C488.266 175.191 487.854 174.597 487.317 174.117C486.78 173.647 486.118 173.283 485.342 173.043C484.565 172.804 483.673 172.689 482.676 172.689C482.379 172.689 482.091 172.689 481.813 172.698C481.535 172.708 481.267 172.708 481.017 172.717C480.768 172.727 480.538 172.736 480.337 172.746C480.135 172.756 479.963 172.775 479.828 172.784V175.661V178.537V181.414V184.281Z" fill="#EB6C00"/>
<path d="M499.628 168.517C499.628 168.45 499.628 168.402 499.637 168.364C499.647 168.316 499.666 168.287 499.685 168.248C499.714 168.22 499.743 168.191 499.791 168.172C499.839 168.153 499.896 168.133 499.973 168.124C500.26 168.114 500.673 168.095 501.181 168.076C501.699 168.057 502.312 168.047 502.993 168.028C503.674 168.009 504.431 167.999 505.227 167.99C506.013 167.98 506.847 167.97 507.682 167.97C510.175 167.97 512.351 168.373 514.221 169.121C516.09 169.869 517.644 170.971 518.881 172.362C520.127 173.752 521.057 175.449 521.68 177.376C522.304 179.304 522.61 181.47 522.61 183.839C522.61 187.118 522.073 189.831 521.163 192.046C520.252 194.261 518.967 195.987 517.481 197.31C515.995 198.633 514.297 199.535 512.552 200.11C510.817 200.685 509.034 200.934 507.375 200.934C506.752 200.934 506.052 200.934 505.342 200.925C504.633 200.925 503.894 200.915 503.204 200.906C502.504 200.896 501.852 200.886 501.286 200.877C500.721 200.867 500.241 200.848 499.915 200.839C499.867 200.839 499.819 200.829 499.781 200.81C499.743 200.791 499.714 200.771 499.685 200.733C499.656 200.695 499.647 200.656 499.628 200.608C499.618 200.56 499.608 200.503 499.608 200.445V192.458V184.472V176.485L499.628 168.517ZM504.987 196.121C505.198 196.131 505.4 196.15 505.601 196.16C505.802 196.169 506.004 196.179 506.205 196.188C506.406 196.198 506.608 196.207 506.828 196.207C507.039 196.207 507.26 196.217 507.499 196.217C508.88 196.217 510.165 195.977 511.316 195.479C512.476 194.98 513.502 194.242 514.355 193.235C515.208 192.228 515.899 190.963 516.368 189.419C516.838 187.885 517.107 186.073 517.116 183.983C517.126 181.95 516.877 180.214 516.407 178.776C515.937 177.338 515.247 176.178 514.393 175.277C513.54 174.375 512.524 173.723 511.383 173.301C510.251 172.88 508.995 172.688 507.682 172.688C507.423 172.688 507.183 172.688 506.943 172.697C506.704 172.707 506.483 172.707 506.263 172.717C506.042 172.726 505.831 172.736 505.62 172.745C505.409 172.755 505.198 172.774 504.987 172.784V178.613V184.443V190.272C504.987 190.282 504.987 196.121 504.987 196.121Z" fill="#EB6C00"/>
<path d="M533.867 200.445C533.867 200.522 533.857 200.58 533.848 200.628C533.838 200.676 533.819 200.723 533.79 200.752C533.761 200.781 533.723 200.8 533.685 200.819C533.646 200.829 533.589 200.839 533.531 200.839H532.361H531.192H530.022H528.852C528.795 200.839 528.737 200.829 528.699 200.819C528.66 200.81 528.622 200.781 528.593 200.752C528.565 200.723 528.545 200.685 528.536 200.628C528.526 200.58 528.517 200.513 528.517 200.445V192.439V184.433V176.427V168.421C528.517 168.363 528.526 168.306 528.536 168.268C528.545 168.229 528.565 168.191 528.593 168.162C528.622 168.133 528.66 168.114 528.699 168.105C528.737 168.095 528.795 168.085 528.852 168.085H532.937H537.021H541.106H545.19C545.267 168.085 545.325 168.095 545.373 168.105C545.42 168.114 545.449 168.133 545.478 168.162C545.507 168.191 545.526 168.229 545.545 168.268C545.564 168.306 545.574 168.363 545.583 168.421L545.708 169.457L545.833 170.492L545.957 171.528L546.082 172.563C546.092 172.64 546.092 172.697 546.082 172.745C546.072 172.793 546.044 172.841 546.015 172.87C545.986 172.899 545.938 172.918 545.881 172.937C545.823 172.947 545.766 172.956 545.689 172.956H542.726H539.773H536.81H533.848V175.286V177.616V179.946V182.276H536.504H539.159H541.815H544.471C544.538 182.276 544.586 182.276 544.625 182.285C544.673 182.295 544.701 182.314 544.73 182.333C544.759 182.362 544.778 182.391 544.788 182.439C544.797 182.487 544.807 182.544 544.807 182.621V183.657V184.692V185.728V186.763C544.807 186.84 544.797 186.897 544.788 186.945C544.778 186.993 544.759 187.022 544.73 187.051C544.701 187.08 544.663 187.089 544.625 187.099C544.577 187.108 544.529 187.108 544.471 187.108H541.825H539.169H536.513H533.857V190.445V193.782V197.118L533.867 200.445Z" fill="#EB6C00"/>
<mask id="mask0" mask-type="alpha" maskUnits="userSpaceOnUse" x="112" y="56" width="278" height="124">
<path d="M115.256 114.432C112.181 117.604 112.259 122.668 115.432 125.744L167.126 175.86C170.299 178.936 175.363 178.857 178.439 175.685C181.514 172.513 181.436 167.448 178.263 164.372L132.312 119.825L176.86 73.8737C179.936 70.7014 179.857 65.6367 176.685 62.5613C173.513 59.4859 168.448 59.5645 165.372 62.7367L115.256 114.432ZM386.743 121.537C389.819 118.365 389.74 113.301 386.568 110.225L334.873 60.1088C331.701 57.0334 326.636 57.1119 323.561 60.2842C320.485 63.4564 320.564 68.5211 323.736 71.5965L369.687 116.144L325.139 162.095C322.064 165.268 322.142 170.332 325.315 173.408C328.487 176.483 333.552 176.405 336.627 173.232L386.743 121.537ZM121.124 127.999L381.124 123.968L380.876 107.97L120.876 112.001L121.124 127.999Z" fill="black"/>
</mask>
<g mask="url(#mask0)">
<rect x="279" y="11" width="126" height="217" fill="#EB6C00"/>
</g>
</svg>
